name C:\Users\r0593348\3dpredictsim\Results\Batchsim_tmt_linear\Pog_s1_tmt_aCst_d00_k800_ig24_pas.mot
datacolumns 128
datarows 4
range 1.10756716 1.14079417
endheader
time	pelvis_tilt	pelvis_list	pelvis_rotation	pelvis_tx	pelvis_ty	pelvis_tz	hip_flexion_l	hip_adduction_l	hip_rotation_l	hip_flexion_r	hip_adduction_r	hip_rotation_r	knee_angle_l	knee_angle_r	ankle_angle_l	ankle_angle_r	subtalar_angle_l	subtalar_angle_r	tmt_angle_l	tmt_angle_r	mtp_angle_l	mtp_angle_r	lumbar_extension	lumbar_bending	lumbar_rotation	arm_flex_l	arm_add_l	arm_rot_l	arm_flex_r	arm_add_r	arm_rot_r	elbow_flex_l	elbow_flex_r	pro_sup_l	pro_sup_r	glut_med1_l/activation	glut_med2_l/activation	glut_med3_l/activation	glut_min1_l/activation	glut_min2_l/activation	glut_min3_l/activation	semimem_l/activation	semiten_l/activation	bifemlh_l/activation	bifemsh_l/activation	sar_l/activation	add_long_l/activation	add_brev_l/activation	add_mag1_l/activation	add_mag2_l/activation	add_mag3_l/activation	tfl_l/activation	pect_l/activation	grac_l/activation	glut_max1_l/activation	glut_max2_l/activation	glut_max3_l/activation	iliacus_l/activation	psoas_l/activation	quad_fem_l/activation	gem_l/activation	peri_l/activation	rect_fem_l/activation	vas_med_l/activation	vas_int_l/activation	vas_lat_l/activation	med_gas_l/activation	lat_gas_l/activation	soleus_l/activation	tib_post_l/activation	flex_dig_l/activation	flex_hal_l/activation	tib_ant_l/activation	per_brev_l/activation	per_long_l/activation	per_tert_l/activation	ext_dig_l/activation	ext_hal_l/activation	ercspn_l/activation	intobl_l/activation	extobl_l/activation	glut_med1_r/activation	glut_med2_r/activation	glut_med3_r/activation	glut_min1_r/activation	glut_min2_r/activation	glut_min3_r/activation	semimem_r/activation	semiten_r/activation	bifemlh_r/activation	bifemsh_r/activation	sar_r/activation	add_long_r/activation	add_brev_r/activation	add_mag1_r/activation	add_mag2_r/activation	add_mag3_r/activation	tfl_r/activation	pect_r/activation	grac_r/activation	glut_max1_r/activation	glut_max2_r/activation	glut_max3_r/activation	iliacus_r/activation	psoas_r/activation	quad_fem_r/activation	gem_r/activation	peri_r/activation	rect_fem_r/activation	vas_med_r/activation	vas_int_r/activation	vas_lat_r/activation	med_gas_r/activation	lat_gas_r/activation	soleus_r/activation	tib_post_r/activation	flex_dig_r/activation	flex_hal_r/activation	tib_ant_r/activation	per_brev_r/activation	per_long_r/activation	per_tert_r/activation	ext_dig_r/activation	ext_hal_r/activation	ercspn_r/activation	intobl_r/activation	extobl_r/activation	
          1.10756716	         -2.92300711	         -2.49463942	          6.30679332	          1.38445895	          0.85474268	         -0.00316763	        -18.48938759	         -2.35083925	          7.54428516	         31.97567727	          3.29581894	         -3.05564523	         -8.59786534	        -15.55199125	         -0.11026326	          6.10838758	         11.86220811	         -3.03361272	          1.25449341	          0.04048609	         22.84390184	         -0.09956472	         -2.09240267	          1.03712930	         -2.11555358	          8.39358883	        -13.47651469	         18.34163255	        -10.25185906	        -13.56925623	          7.64087269	         39.67387613	         13.27143948	         86.51662706	         86.51662706	          0.24452128	          0.08649694	          0.05576400	          0.29212559	          0.19352251	          0.09567069	          0.05000049	          0.05000004	          0.05000003	          0.07360395	          0.09848197	          0.11725823	          0.13787435	          0.05000741	          0.05000080	          0.05000016	          0.29930161	          0.11558460	          0.05000100	          0.05000041	          0.05000025	          0.05000023	          0.35749667	          0.59409472	          0.05000009	          0.05000018	          0.05000004	          0.21909529	          0.11308901	          0.09430350	          0.06803585	          0.28797196	          0.38984434	          0.26656107	          0.24924034	          0.27614209	          0.34634202	          0.05000000	          0.06433942	          0.15642376	          0.05000001	          0.05000000	          0.05000002	          0.05000005	          0.05000041	          0.05000006	          0.05922971	          0.05922972	          0.05000002	          0.05922973	          0.05922973	          0.05922960	          0.05000067	          0.05000013	          0.28863241	          0.05000004	          0.05000007	          0.11663211	          0.26296169	          0.12313459	          0.13062141	          0.12968282	          0.05000002	          0.07015710	          0.07790347	          0.05000005	          0.05000004	          0.15865835	          0.05922976	          0.05669612	          0.34031511	          0.20705547	          0.13667859	          0.06049542	          0.19090060	          0.18828906	          0.16412611	          0.05000002	          0.05000002	          0.05159029	          0.05000000	          0.05000006	          0.05000005	          0.61954771	          0.35720232	          0.20257415	          0.38366313	          0.59235905	          0.32988867	          0.05952755	          0.08793715	          0.09140465	
          1.11864283	         -2.91164730	         -2.60197200	          6.56190462	          1.40155737	          0.85360149	         -0.00293839	        -18.18134456	         -2.67019243	          7.34310232	         31.31040593	          3.69326041	         -2.81929075	        -10.88947084	        -15.82248021	         -1.14202223	          5.47228236	         12.91398760	         -3.53927235	          1.16910592	          0.02482839	         23.84032499	         -0.06793518	         -1.86372924	          1.28686969	         -2.20270291	          8.11191225	        -13.50111953	         18.47804781	        -11.42985254	        -13.56287218	          7.48235790	         40.92272636	         13.22900502	         86.51662706	         86.51662706	          0.20641771	          0.07301819	          0.05922968	          0.24660389	          0.16336604	          0.08076240	          0.05000052	          0.05000007	          0.05000016	          0.06213430	          0.08313562	          0.21013175	          0.25344987	          0.07016218	          0.05922993	          0.05922987	          0.25266168	          0.09757353	          0.05000034	          0.05000764	          0.05318611	          0.05922969	          0.30178823	          0.54139035	          0.05922971	          0.05922970	          0.05000049	          0.18495383	          0.13816188	          0.13816191	          0.13816186	          0.24309749	          0.32909518	          0.22502304	          0.21040141	          0.23311110	          0.29237181	          0.05000000	          0.05431347	          0.14712694	          0.05000001	          0.05000000	          0.05000001	          0.06497753	          0.05922972	          0.05000002	          0.05000000	          0.05000001	          0.13636905	          0.05000001	          0.05000001	          0.05000002	          0.05000001	          0.05000002	          0.24365503	          0.05000001	          0.05000032	          0.09845743	          0.22198460	          0.33715165	          0.23139362	          0.13892098	          0.05000018	          0.05922525	          0.07723461	          0.10289611	          0.11547422	          0.13393482	          0.05000006	          0.05922970	          0.43446014	          0.17479017	          0.11538007	          0.05922980	          0.20975931	          0.22507877	          0.18655699	          0.05000002	          0.05000013	          0.05000000	          0.05922972	          0.07016337	          0.07016318	          0.54567049	          0.39832419	          0.23649736	          0.32387721	          0.57502493	          0.27848237	          0.05025142	          0.07423397	          0.07716113	
          1.12971850	         -2.89636409	         -2.70758793	          6.78321553	          1.41886101	          0.85243131	         -0.00271888	        -17.76954166	         -2.96888406	          7.12590338	         30.46547707	          4.02207201	         -2.53805840	        -13.34242464	        -16.30262034	         -2.34689048	          5.03004109	         13.88299544	         -4.07925292	          1.05882387	         -0.01060841	         24.60577047	         -0.19633660	         -1.62061312	          1.53892664	         -2.27892367	          7.74472080	        -13.52801209	         18.53432340	        -12.58597747	        -13.56159237	          7.39152147	         42.14450329	         13.19413049	         86.51662706	         86.51662706	          0.28050840	          0.06163982	          0.05000000	          0.35120390	          0.13790885	          0.06817726	          0.06616155	          0.05000002	          0.05000001	          0.05245197	          0.07018073	          0.17738710	          0.21395498	          0.05922888	          0.05000022	          0.05000015	          0.28050384	          0.08291648	          0.05000010	          0.05000014	          0.05000007	          0.05000005	          0.25476080	          0.50017950	          0.05000000	          0.05000005	          0.05000001	          0.15613261	          0.11663222	          0.11663224	          0.11663220	          0.20521578	          0.27781251	          0.18995786	          0.17761471	          0.19678558	          0.24681174	          0.05000047	          0.10831260	          0.16962878	          0.05000005	          0.14434794	          0.05000015	          0.08225580	          0.05000000	          0.05000000	          0.27589260	          0.28963584	          0.36868387	          0.37415105	          0.22346416	          0.18827107	          0.07478021	          0.08402137	          0.20568645	          0.07910883	          0.05000066	          0.08311489	          0.18739291	          0.28461358	          0.19533576	          0.15445692	          0.05000004	          0.05000048	          0.06520660	          0.22049614	          0.18071736	          0.13175988	          0.05000006	          0.05000003	          0.36675854	          0.14755278	          0.23920572	          0.05000007	          0.17707270	          0.19000551	          0.15748599	          0.05000016	          0.05000011	          0.05224545	          0.05000000	          0.05922988	          0.05922973	          0.59827085	          0.40239571	          0.19964420	          0.61106110	          0.64695275	          0.31513886	          0.07153096	          0.08447668	          0.06513717	
          1.14079417	         -2.87911782	         -2.80153851	          6.96418146	          1.43612829	          0.85127889	         -0.00246517	        -17.23178985	         -3.23758941	          6.90442012	         29.54963731	          4.33545674	         -2.26230543	        -15.96558922	        -16.73582241	         -3.62107475	          4.74489295	         14.76757493	         -4.64570147	          0.87160739	         -0.02302129	         24.92364756	         -0.20091377	         -1.38612852	          1.78080804	         -2.34414993	          7.33751559	        -13.56198929	         18.53618869	        -13.66082727	        -13.55941598	          7.38126826	         43.30226543	         13.12700309	         86.51662706	         86.51662706	          0.23679698	          0.05203454	          0.05000001	          0.29647606	          0.11641862	          0.05755326	          0.09104774	          0.05000005	          0.05000008	          0.05000001	          0.05924454	          0.20201667	          0.25170831	          0.05000023	          0.05267250	          0.11665472	          0.23679325	          0.06999575	          0.05000009	          0.05000062	          0.05000049	          0.05000047	          0.21506161	          0.43261953	          0.05000003	          0.05000014	          0.05000002	          0.13180258	          0.09845752	          0.09845754	          0.09845750	          0.17323715	          0.23452119	          0.16035686	          0.14993715	          0.16612065	          0.20835126	          0.16103289	          0.13148026	          0.14319570	          0.23298697	          0.24163438	          0.11262030	          0.11029433	          0.05000000	          0.05000000	          0.40599344	          0.45944527	          0.53336365	          0.31590562	          0.27905147	          0.43192064	          0.07794737	          0.12015045	          0.17363448	          0.06678152	          0.05000005	          0.07016318	          0.15819163	          0.24026266	          0.24002009	          0.18538587	          0.05000004	          0.05016835	          0.12569616	          0.30579467	          0.23286138	          0.18404809	          0.05000001	          0.05000001	          0.30960683	          0.12455975	          0.27206952	          0.05000000	          0.23136298	          0.26578540	          0.21054113	          0.05000000	          0.05000000	          0.05000000	          0.05000000	          0.05000015	          0.05000003	          0.72915464	          0.33969068	          0.16853379	          0.60243630	          0.65104555	          0.45433161	          0.09644234	          0.07131274	          0.05498689	
